<svg width="24" height="24" viewBox="0 0 24 24" fill="none" xmlns="http://www.w3.org/2000/svg">
<path d="M15.5168 13.9452H15.6668H16.7143H16.8643V14.0952V19.3332C16.8643 19.3333 16.8643 19.3334 16.8643 19.3334C16.8644 20.2154 17.3349 21.0305 18.0989 21.4716L18.0989 21.4716C18.8628 21.9127 19.804 21.9127 20.5679 21.4716C21.3317 21.0304 21.8024 20.2153 21.8024 19.3332C21.8024 18.9612 22.1041 18.6595 22.4761 18.6595C22.8482 18.6595 23.1499 18.961 23.15 19.333L15.5168 13.9452ZM15.5168 13.9452V14.0952V19.333C15.5168 20.6967 16.2441 21.9565 17.425 22.6383C18.606 23.3202 20.0608 23.3202 21.2417 22.6383L21.1667 22.5084L21.2418 22.6383C22.4224 21.9565 23.1499 20.6968 23.15 19.3332L15.5168 13.9452ZM3.61897 0.85H20.381C21.1153 0.85 21.8197 1.14168 22.3389 1.66103C22.8583 2.18023 23.15 2.88468 23.15 3.61897V9.90464C23.15 10.6391 22.8583 11.3434 22.3389 11.8627C21.8198 12.3819 21.1153 12.6738 20.381 12.6738H3.61897C2.88465 12.6738 2.18027 12.3819 1.66106 11.8627C1.14167 11.3434 0.85 10.6391 0.85 9.90464V3.61897C0.85 2.88469 1.14168 2.18031 1.66103 1.66108C1.66104 1.66106 1.66106 1.66105 1.66107 1.66104M3.61897 0.85L20.381 1H3.61897C2.92445 1 2.25817 1.27587 1.76712 1.76712L1.66107 1.66104M3.61897 0.85C2.8847 0.85 2.18026 1.14165 1.66107 1.66104M3.61897 0.85L1.66107 1.66104M21.386 10.9097L21.386 10.9097C21.1195 11.1762 20.7579 11.326 20.381 11.326H3.61897C3.24204 11.326 2.88048 11.1762 2.614 10.9097L2.61396 10.9097C2.34731 10.6432 2.19755 10.2816 2.19755 9.90455V3.61888C2.19755 3.24196 2.3473 2.88042 2.61396 2.61394L2.61403 2.61388C2.88053 2.34722 3.24206 2.19746 3.61897 2.19746H20.381C20.758 2.19746 21.1195 2.34722 21.386 2.61387L21.386 2.61394C21.6527 2.88044 21.8024 3.24197 21.8024 3.61888V9.90455C21.8024 10.2817 21.6527 10.6432 21.386 10.9097ZM5.90127 21.4713L5.90126 21.4713C5.13741 21.9124 4.19617 21.9124 3.43232 21.4713C2.66844 21.0302 2.19773 20.215 2.19773 19.333C2.19773 18.9609 1.89609 18.6593 1.52404 18.6593C1.15186 18.6593 0.850179 18.9609 0.850179 19.333V19.3332C0.850179 20.6969 1.57765 21.9568 2.75843 22.6386L2.82987 22.5149L2.75844 22.6386C3.93941 23.3205 5.39416 23.3205 6.57514 22.6386C7.75606 21.9568 8.48333 20.697 8.48339 19.3334C8.48339 19.3334 8.48339 19.3333 8.48339 19.3332V14.0952V13.9452H8.33339H7.28584H7.13584V14.0952V19.333C7.13584 20.215 6.6653 21.0302 5.90127 21.4713ZM11.4762 13.945H11.3262V14.095V18.2854C11.3262 18.6575 11.628 18.9593 12.0001 18.9593C12.1788 18.9593 12.3502 18.8882 12.4766 18.7619C12.6029 18.6356 12.674 18.4641 12.674 18.2854V18.1354H12.6738V14.095V13.945H12.5238H11.4762ZM19.8098 9.33347C19.9361 9.20714 20.0072 9.03571 20.0072 8.857C20.0072 8.67828 19.9361 8.50685 19.8098 8.38052C19.6834 8.2542 19.512 8.18313 19.3333 8.18313H4.66706C4.2948 8.18313 3.99319 8.48498 3.99319 8.857C3.99319 9.22901 4.2948 9.53086 4.66706 9.53086H19.3333C19.512 9.53086 19.6834 9.45979 19.8098 9.33347Z" fill="black" stroke="black" stroke-width="0.3"/>
</svg>
