<svg xmlns="http://www.w3.org/2000/svg" class="svg-icon" version="1.1" viewBox="0 0 1024 1024" style="width:1em;height:1em;vertical-align:middle;fill:currentColor;overflow:hidden"><path d="M894.528 617.216H129.472A129.664 129.664 0 0 1 0 487.744V252.288c0-71.36 58.112-129.472 129.472-129.472h764.992c71.488 0 129.536 58.112 129.536 129.472V487.68a129.6 129.6 0 0 1-129.472 129.536zM129.472 193.472a58.944 58.944 0 0 0-58.88 58.816V487.68a58.88 58.88 0 0 0 58.88 58.816h764.992a58.88 58.88 0 0 0 58.88-58.816V252.288a58.88 58.88 0 0 0-58.88-58.816H129.472z"/><path d="M720.96 456.064c0 19.52-14.784 35.328-33.088 35.328H442.88c-18.304 0-33.152-15.808-33.152-35.328 0-19.52 14.848-35.328 33.152-35.328h244.992c18.24 0.064 33.088 15.872 33.088 35.328zM876.48 456.064a37.504 37.504 0 0 1-37.504 37.504h-2.176a37.504 37.504 0 0 1 0-75.008h2.176c20.8 0 37.504 16.832 37.504 37.504zM357.952 646.656c-28.096 17.28-30.976 52.16-31.936 82.304-0.448 15.616 0.96 31.616 3.2 47.04 3.648 24.32 31.424 50.176 20.8 74.944-11.136 25.856 26.88 48.384 38.08 22.336 13.888-32.256 6.08-57.152-8.704-87.808-8.832-18.368-21.568-86.976 0.768-100.672 24.256-14.784 2.112-53.056-22.208-38.144zM496.192 665.6c-11.84 23.04-18.496 50.112-15.488 76.032 1.408 12.096 5.952 22.72 12.992 32.64 6.08 8.576 18.304 17.088 19.328 28.288 2.56 28.096 46.72 28.352 44.096 0-1.92-21.312-11.392-34.816-25.152-50.56-14.912-17.152-7.04-45.888 2.304-64.128 12.928-25.216-25.088-47.552-38.08-22.272zM689.088 637.056c-57.344 5.952-56.704 56.064-38.656 100.032 8.256 20.032 18.816 39.104 30.656 57.28 6.336 9.728 20.544 29.504 15.296 41.984-7.36 17.344-50.368 18.88-64.704 20.48-27.968 3.008-28.288 47.168 0 44.096 45.44-4.992 115.968-16.384 108.672-77.44-1.984-16.832-73.344-140.032-51.328-142.4 28.096-2.816 28.352-46.976 0.064-44.032z"/></svg>