<svg xmlns="http://www.w3.org/2000/svg" class="svg-icon" version="1.1" viewBox="0 0 1024 1024" style="width:1em;height:1em;vertical-align:middle;fill:currentColor;overflow:hidden"><path d="M41.890909 549.236364c-4.654545 0-9.309091 0-16.290909-2.327273-9.309091-4.654545-25.6-16.290909-25.6-30.254546 0-11.636364 11.636364-27.927273 20.945455-34.90909 6.981818-4.654545 16.290909-4.654545 23.272727-4.654546h772.654545c65.163636 0 111.709091-30.254545 128-83.781818 18.618182-58.181818-11.636364-123.345455-69.818182-146.618182-13.963636-4.654545-27.927273-9.309091-44.218181-9.309091-46.545455 0-88.436364 25.6-107.054546 67.490909-2.327273 4.654545-4.654545 9.309091-4.654545 13.963637-2.327273 4.654545-2.327273 6.981818-4.654546 11.636363-6.981818 16.290909-18.618182 25.6-30.254545 25.6-4.654545 0-11.636364-2.327273-16.290909-4.654545-11.636364-6.981818-23.272727-30.254545-20.945455-44.218182 13.963636-67.490909 81.454545-130.327273 153.6-139.636364 9.309091 0 18.618182-2.327273 25.6-2.327272 95.418182 0 172.218182 62.836364 190.836364 153.6 18.618182 102.4-41.890909 197.818182-144.290909 221.090909-20.945455 4.654545-41.890909 4.654545-62.836364 4.654545H48.872727c0 4.654545-2.327273 4.654545-6.981818 4.654546zM672.581818 984.436364c-58.181818 0-114.036364-30.254545-141.963636-81.454546-6.981818-11.636364-23.272727-39.563636 6.981818-58.181818 6.981818-4.654545 13.963636-6.981818 20.945455-6.981818 16.290909 0 27.927273 13.963636 34.90909 27.927273 18.618182 30.254545 44.218182 46.545455 76.8 46.545454h16.29091c37.236364-4.654545 62.836364-27.927273 74.472727-67.490909 6.981818-25.6 2.327273-51.2-13.963637-72.145455-13.963636-20.945455-37.236364-34.909091-62.836363-37.236363-27.927273-2.327273-58.181818-2.327273-81.454546-2.327273h-558.545454c-4.654545 0-11.636364 0-18.618182-4.654545-9.309091-4.654545-23.272727-18.618182-23.272727-30.254546s11.636364-25.6 20.945454-32.581818c6.981818-4.654545 13.963636-4.654545 20.945455-4.654545h609.745454c97.745455 0 162.909091 51.2 179.2 137.30909 13.963636 76.8-30.254545 153.6-102.4 179.2-18.618182 4.654545-37.236364 6.981818-58.181818 6.981819z"/><path d="M244.363636 365.381818H46.545455c-13.963636 0-27.927273 0-37.236364-9.309091-6.981818-6.981818-9.309091-16.290909-9.309091-25.6 0-37.236364 32.581818-37.236364 53.527273-37.236363h370.036363c46.545455 0 83.781818-32.581818 90.763637-79.127273 4.654545-46.545455-20.945455-86.109091-67.490909-100.072727-6.981818-2.327273-13.963636-2.327273-20.945455-2.327273-27.927273 0-55.854545 13.963636-72.145454 37.236364-2.327273 2.327273-4.654545 6.981818-6.981819 9.30909-2.327273 2.327273-4.654545 6.981818-6.981818 9.309091-9.309091 11.636364-20.945455 18.618182-30.254545 18.618182-6.981818 0-13.963636-2.327273-18.618182-9.309091-11.636364-9.309091-16.290909-34.909091-11.636364-46.545454 20.945455-53.527273 81.454545-93.090909 144.290909-93.090909h11.636364c88.436364 6.981818 153.6 81.454545 151.272727 167.563636-2.327273 88.436364-72.145455 155.927273-158.254545 158.254545h-74.472727c-18.618182 2.327273-93.090909 2.327273-109.381819 2.327273z"/></svg>