<svg xmlns="http://www.w3.org/2000/svg" width="25" height="25" fill="none" viewBox="0 0 25 25"><path fill="#2D3548" d="M13.0682 14.4886H7.95454C7.32954 14.4886 6.81818 15 6.81818 15.625C6.81818 16.25 7.32954 16.7614 7.95454 16.7614H13.0682C13.6932 16.7614 14.2045 16.25 14.2045 15.625C14.2045 15 13.6932 14.4886 13.0682 14.4886ZM17.0454 9.375H7.95454C7.32954 9.375 6.81818 9.88636 6.81818 10.5114C6.81818 11.1364 7.32954 11.6477 7.95454 11.6477H17.0454C17.6704 11.6477 18.1818 11.1364 18.1818 10.5114C18.1818 9.88636 17.6704 9.375 17.0454 9.375Z"/><path fill="#2D3548" d="M12.5 0C5.625 0 0 5.625 0 12.5V19.8864C0 22.7273 2.27273 25 5.11364 25H12.5C19.375 25 25 19.375 25 12.5C25 5.625 19.375 0 12.5 0ZM12.5 22.7273H5.11364C3.52273 22.7273 2.27273 21.4773 2.27273 19.8864V12.5C2.27273 6.875 6.875 2.27273 12.5 2.27273C18.125 2.27273 22.7273 6.875 22.7273 12.5C22.7273 18.125 18.125 22.7273 12.5 22.7273Z"/></svg>