<svg xmlns="http://www.w3.org/2000/svg" class="svg-icon" version="1.1" viewBox="0 0 1024 1024" style="width:1em;height:1em;vertical-align:middle;fill:currentColor;overflow:hidden"><path d="M891.808282 706.099696l-137.431046-79.346139 129.427768-40.440038c10.902304-3.406586 16.978696-15.005762 13.57211-25.908066-3.405563-10.902304-15.007809-16.984836-25.908066-13.57211L705.676048 598.637196l-152.315034-87.938841L702.994985 424.306752l168.474063 52.640917c2.053776 0.642636 4.130064 0.947582 6.173606 0.947582 8.80555-0.002047 16.968463-5.671163 19.733437-14.518668 3.40761-10.902304-2.669806-22.500457-13.57211-25.908066l-132.109854-41.278125 139.079592-80.297814c9.892301-5.711072 13.281491-18.358113 7.569396-28.250414-5.709025-9.888208-18.358113-13.281491-28.250414-7.569396l-137.430022 79.345116 29.691229-132.306328c2.501984-11.143805-4.505617-22.205745-15.650445-24.705682-11.154038-2.512217-22.207791 4.507664-24.705682 15.650445l-38.034245 169.478949-151.258982 87.329974 0-172.457794 128.767735-118.607328c8.399297-7.739265 8.936533-20.822235 1.199315-29.223578-7.739265-8.397251-20.822235-8.93858-29.223578-1.199315l-100.743472 92.795453L532.704554 85.971024c0-11.422144-9.259898-20.681018-20.681018-20.681018-11.42112 0-20.681018 9.258874-20.681018 20.681018l0 160.243611-100.792591-92.840478c-8.399297-7.737218-21.482267-7.199982-29.222555 1.199315-7.738241 8.401344-7.201006 21.484314 1.200338 29.223578l128.814808 118.652354 0 172.440397L340.632027 387.878075l-38.033221-169.479973c-2.50096-11.145851-13.5629-18.162662-24.706705-15.650445-11.144828 2.499937-18.152429 13.561877-15.651468 24.705682l29.690206 132.306328L153.906276 280.071743c-9.890254-5.711072-22.541389-2.322905-28.250414 7.569396-5.711072 9.892301-2.321882 22.539342 7.569396 28.250414l139.674133 80.640622-132.107807 41.278125c-10.902304 3.406586-16.977673 15.005762-13.57211 25.908066 2.764973 8.849552 10.926864 14.518668 19.733437 14.518668 2.042519 0 4.120854-0.304945 6.173606-0.947582l168.472016-52.639894 149.038408 86.047772L318.91747 598.293365l-165.78993-51.80283c-10.900258-3.405563-22.500457 2.669806-25.908066 13.57211-3.406586 10.902304 2.669806 22.500457 13.57211 25.908066l129.425721 40.440038-138.025587 79.68997c-9.891278 5.711072-13.281491 18.358113-7.569396 28.250414 3.830235 6.634094 10.781554 10.344602 17.929348 10.344602 3.507894 0 7.064906-0.89437 10.321066-2.775206l139.674133-80.640622-30.305213 135.047766c-2.50096 11.144828 4.505617 22.205745 15.651468 24.705682 1.524726 0.343831 3.046383 0.506537 4.547573 0.506537 9.462512 0 18.000979-6.537903 20.160155-16.156982l38.648229-172.22141 150.095483-86.657662 0 175.513386L362.52771 840.669578c-8.401344 7.739265-8.93858 20.822235-1.200338 29.223578 7.738241 8.397251 20.821211 8.93244 29.222555 1.199315l100.792591-92.840478 0 159.774937c0 11.42112 9.259898 20.681018 20.681018 20.681018 11.42112 0 20.681018-9.259898 20.681018-20.681018L532.704554 778.298042l100.743472 92.795453c3.976568 3.66139 8.996908 5.469572 14.005992 5.469572 5.578042 0 11.140735-2.24411 15.217586-6.668886 7.737218-8.401344 7.199982-21.484314-1.199315-29.223578L532.704554 722.06225 532.704554 546.531468l150.643975 86.974887L721.997782 805.726741c2.159176 9.621125 10.695596 16.156982 20.160155 16.156982 1.49812 0 3.02387-0.163729 4.546549-0.506537 11.143805-2.499937 18.152429-13.561877 15.650445-24.705682l-30.306236-135.047766 139.079592 80.297814c3.257184 1.879813 6.812149 2.775206 10.320043 2.775206 7.147794 0 14.101159-3.710508 17.930371-10.344602C905.089773 724.458833 901.700583 711.811792 891.808282 706.099696z"/></svg>