<svg xmlns="http://www.w3.org/2000/svg" class="svg-icon" version="1.1" viewBox="0 0 1072 1024" style="width:1.046875em;height:1em;vertical-align:middle;fill:currentColor;overflow:hidden"><path d="M448.609524 934.765714c109.616762-154.428952 184.56381-343.137524 228.937143-640.828952 2.096762-13.702095 0 46.762667 0 60.562286 0 188.952381-48.079238 333.04381-80.749715 421.64419a21.357714 21.357714 0 0 0 19.504762 28.769524c69.924571 2.730667 224.158476-14.189714 238.006857-237.568 12.239238-197.778286-89.234286-441.295238-140.190476-557.056-8.97219-20.382476-14.969905-0.926476-20.626285 21.308952-20.72381 80.749714-153.209905 160.572952-224.49981 262.339048-147.651048 210.748952-95.085714 362.154667 17.408 470.064762a23.405714 23.405714 0 0 1 3.559619 29.549714c-19.163429 30.524952-31.792762 84.358095-76.8 109.616762-73.240381 41.252571 0.341333 81.042286 35.498667 31.646476zM342.162286 562.95619c-31.792762-80.11581-56.271238-174.421333-67.681524-293.546666-0.975238-10.191238-15.945143-10.532571-17.212952-0.438857-17.700571 149.357714 26.624 239.762286 47.250285 306.176a15.750095 15.750095 0 0 1-15.457524 20.382476c-51.541333-0.682667-164.327619-19.017143-165.888-183.832381C121.807238 265.752381 205.775238 90.550857 247.710476 7.460571c7.41181-14.628571 11.068952-0.097524 14.384762 16.432762 12.141714 60.220952 106.447238 124.001524 154.965333 201.581715 7.021714 11.215238 13.312 22.137905 18.919619 32.816762-5.461333 6.826667-10.727619 13.702095-15.603809 20.723809-78.116571 111.518476-96.256 205.287619-78.214095 283.940571z"/></svg>