<svg width="40" height="40" viewBox="0 0 40 40" fill="none" xmlns="http://www.w3.org/2000/svg">
<rect width="40" height="40" rx="20" fill="#464646"/>
<path d="M19.2892 26.6442C18.7424 27.1909 18.0009 27.4982 17.2276 27.4983H13.7301C13.5655 27.4983 13.4025 27.4658 13.2506 27.4027C13.0986 27.3396 12.9606 27.2471 12.8444 27.1305C12.7283 27.0139 12.6363 26.8755 12.5738 26.7232C12.5113 26.571 12.4794 26.4079 12.4801 26.2433L12.4951 22.7625C12.4983 21.9933 12.8053 21.2565 13.3492 20.7125L21.8484 12.2142C22.3955 11.6677 23.1371 11.3607 23.9103 11.3605C24.6836 11.3603 25.4253 11.6671 25.9726 12.2133L27.7834 14.0233C28.0545 14.294 28.2697 14.6154 28.4165 14.9692C28.5634 15.323 28.6391 15.7022 28.6394 16.0853C28.6396 16.4684 28.5643 16.8478 28.4179 17.2018C28.2715 17.5557 28.0567 17.8774 27.7859 18.1483C27.7459 18.195 27.7192 18.2258 27.6801 18.2542L19.2892 26.6442ZM26.0626 16.3292C26.1197 16.2488 26.1464 16.1507 26.138 16.0524C26.1296 15.9542 26.0867 15.8621 26.0167 15.7925L24.2059 13.9825C24.1275 13.9046 24.0215 13.8608 23.9109 13.8608C23.8003 13.8608 23.6943 13.9046 23.6159 13.9825L15.1167 22.4808C15.039 22.5584 14.9949 22.6635 14.9942 22.7733L14.9842 24.9983H17.2259C17.2807 24.9984 17.3349 24.9877 17.3855 24.9669C17.4361 24.946 17.4821 24.9153 17.5209 24.8767L26.0617 16.3292H26.0626ZM10.8334 4.16669H29.1667C30.9348 4.16669 32.6305 4.86907 33.8808 6.11931C35.131 7.36955 35.8334 9.06524 35.8334 10.8334V29.1667C35.8334 30.9348 35.131 32.6305 33.8808 33.8807C32.6305 35.131 30.9348 35.8333 29.1667 35.8333H10.8334C9.0653 35.8333 7.36961 35.131 6.11937 33.8807C4.86913 32.6305 4.16675 30.9348 4.16675 29.1667V10.8334C4.16675 9.06524 4.86913 7.36955 6.11937 6.11931C7.36961 4.86907 9.0653 4.16669 10.8334 4.16669ZM10.8334 6.66669C9.72834 6.66669 8.66854 7.10567 7.88713 7.88707C7.10573 8.66847 6.66675 9.72828 6.66675 10.8334V29.1667C6.66675 30.2717 7.10573 31.3315 7.88713 32.1129C8.66854 32.8943 9.72834 33.3333 10.8334 33.3333H29.1667C30.2718 33.3333 31.3316 32.8943 32.113 32.1129C32.8944 31.3315 33.3334 30.2717 33.3334 29.1667V10.8334C33.3334 9.72828 32.8944 8.66847 32.113 7.88707C31.3316 7.10567 30.2718 6.66669 29.1667 6.66669H10.8334Z" fill="#F9F9F9"/>
</svg>
