<svg xmlns="http://www.w3.org/2000/svg" class="svg-icon" version="1.1" viewBox="0 0 1024 1024" style="width:1em;height:1em;vertical-align:middle;fill:currentColor;overflow:hidden"><path fill="#231F20" d="M749.12 465.6a467.2 467.2 0 0 0 68.8-118.4c56.32-139.2 42.24-276.48-32-306.24S608 99.84 550.72 239.04a470.4 470.4 0 0 0-32 124.16 190.4 190.4 0 0 1 230.08 102.4zM416 440.96a469.76 469.76 0 0 0-128 0C136.96 462.72 25.28 544 36.16 622.4s140.48 125.76 288 104.64a469.76 469.76 0 0 0 124.48-34.88A192 192 0 0 1 416 440.96zM864 672a465.92 465.92 0 0 0-99.84-96 190.08 190.08 0 0 1-192 162.56 470.4 470.4 0 0 0 64 110.4c92.48 118.4 218.24 174.72 280.96 125.76S956.8 789.76 864 672z m-194.24-138.24A96 96 0 1 0 588.48 640a96 96 0 0 0 81.6-106.88z"/></svg>