<svg width="25" height="23" viewBox="0 0 25 23" fill="none" xmlns="http://www.w3.org/2000/svg">
<path d="M19.5312 3.6875H12.5C12.5 2.8587 12.1708 2.06384 11.5847 1.47779C10.9987 0.89174 10.2038 0.5625 9.375 0.5625H3.90625C3.07745 0.5625 2.28259 0.89174 1.69654 1.47779C1.11049 2.06384 0.78125 2.8587 0.78125 3.6875V17.75C0.78125 18.9932 1.27511 20.1855 2.15419 21.0646C3.03326 21.9436 4.22555 22.4375 5.46875 22.4375H19.5312C20.7745 22.4375 21.9667 21.9436 22.8458 21.0646C23.7249 20.1855 24.2188 18.9932 24.2188 17.75V8.375C24.2188 7.1318 23.7249 5.93951 22.8458 5.06044C21.9667 4.18136 20.7745 3.6875 19.5312 3.6875ZM12.1797 18.5312C11.375 18.5312 6.25 15.5 6.25 11.7734C6.25 10.0781 7.63281 8.375 9.33594 8.375C9.94535 8.38008 10.54 8.56323 11.0466 8.90193C11.5533 9.24062 11.9498 9.72007 12.1875 10.2812C12.4246 9.72128 12.82 9.24266 13.3251 8.90406C13.8302 8.56546 14.4232 8.38159 15.0312 8.375C16.7344 8.375 18.1172 10.0781 18.1172 11.7734C18.1172 15.5 12.9922 18.5312 12.1797 18.5312Z" fill="#231F20"/>
</svg>
