<svg width="27" height="27" viewBox="0 0 27 27" fill="none" xmlns="http://www.w3.org/2000/svg">
<path d="M20.25 20.25C20.25 20.5484 20.1315 20.8345 19.9205 21.0455C19.7095 21.2565 19.4234 21.375 19.125 21.375H16.875V13.5H20.25V20.25ZM12.375 21.375H14.625V13.5H12.375V21.375ZM7.875 21.375C7.57663 21.375 7.29048 21.2565 7.0795 21.0455C6.86853 20.8345 6.75 20.5484 6.75 20.25V13.5H10.125V21.375H7.875ZM5.625 10.125C5.625 9.82664 5.74353 9.54049 5.9545 9.32951C6.16548 9.11853 6.45163 9.00001 6.75 9.00001H10.125V11.25H5.625V10.125ZM10.125 5.625C10.125 5.32666 10.2436 5.04056 10.4546 4.82962C10.6655 4.61868 10.9517 4.50017 11.25 4.50017C11.5483 4.50017 11.8345 4.61868 12.0454 4.82962C12.2564 5.04056 12.375 5.32666 12.375 5.625V6.75H11.25C10.9516 6.75 10.6655 6.63148 10.4545 6.4205C10.2435 6.20952 10.125 5.92337 10.125 5.625ZM15.75 4.5C16.0483 4.50005 16.3344 4.61859 16.5454 4.82957C16.7563 5.04054 16.8748 5.32666 16.8748 5.625C16.8748 5.92334 16.7563 6.20947 16.5454 6.42044C16.3344 6.63141 16.0483 6.74996 15.75 6.75H14.625V5.625C14.625 5.32663 14.7435 5.04049 14.9545 4.82951C15.1655 4.61853 15.4516 4.5 15.75 4.5ZM12.375 9.00001H14.625V11.25H12.375V9.00001ZM21.375 10.125V11.25H16.875V9.00001H20.25C20.5484 9.00001 20.8345 9.11853 21.0455 9.32951C21.2565 9.54049 21.375 9.82664 21.375 10.125ZM20.25 6.75H18.9169C19.044 6.39675 19.125 6.02213 19.125 5.625C19.125 3.76425 17.6107 2.25 15.75 2.25C14.917 2.25282 14.1149 2.56564 13.5 3.1275C12.8851 2.56564 12.083 2.25282 11.25 2.25C9.38925 2.25 7.875 3.76425 7.875 5.625C7.875 6.02213 7.956 6.39675 8.08313 6.75H6.75C4.88925 6.75 3.375 8.26426 3.375 10.125V12.375C3.375 12.6734 3.49353 12.9595 3.7045 13.1705C3.91548 13.3815 4.20163 13.5 4.5 13.5V20.25C4.5 22.1108 6.01425 23.625 7.875 23.625H19.125C20.9858 23.625 22.5 22.1108 22.5 20.25V13.5C22.7984 13.5 23.0845 13.3815 23.2955 13.1705C23.5065 12.9595 23.625 12.6734 23.625 12.375V10.125C23.625 8.26426 22.1108 6.75 20.25 6.75Z" fill="black"/>
</svg>
