<svg xmlns="http://www.w3.org/2000/svg" width="26" height="26" fill="none" viewBox="0 0 26 26"><path fill="#000" d="M13 0.166504C14.677 0.166504 16.3025 0.485517 17.8765 1.12354C19.4505 1.76157 20.851 2.69434 22.0782 3.92186C23.3053 5.14938 24.2381 6.54994 24.8765 8.12354C25.5149 9.69714 25.8339 11.3226 25.8335 13C25.8331 14.6774 25.5141 16.3029 24.8765 17.8765C24.2388 19.4501 23.3061 20.8507 22.0782 22.0782C20.8503 23.3057 19.4497 24.2385 17.8765 24.8765C16.3033 25.5145 14.6778 25.8335 13 25.8335C11.3223 25.8335 9.69676 25.5145 8.12354 24.8765C6.55031 24.2385 5.14975 23.3057 3.92186 22.0782C2.69397 20.8507 1.7612 19.4501 1.12354 17.8765C0.485891 16.3029 0.166878 14.6774 0.166504 13C0.166131 11.3226 0.485144 9.69714 1.12354 8.12354C1.76194 6.54994 2.69472 5.14938 3.92186 3.92186C5.14901 2.69434 6.54957 1.76157 8.12354 1.12354C9.69751 0.485517 11.323 0.166504 13 0.166504ZM8.13306 9.78282L4.79714 6.4469C4.04375 7.38882 3.47255 8.42183 3.08354 9.54594C2.69453 10.67 2.50002 11.8216 2.50002 13.0006C2.50002 14.1796 2.69453 15.3311 3.08354 16.4552C3.47255 17.5793 4.04375 18.6123 4.79714 19.5543L8.13306 16.2183C7.48906 15.2462 7.16706 14.1738 7.16706 13.0011C7.16706 11.8285 7.48906 10.7561 8.13306 9.78394V9.78282ZM19.5531 21.2029L16.2172 17.867C15.2451 18.511 14.1727 18.833 13 18.833C11.8274 18.833 10.755 18.511 9.78282 17.867L6.4469 21.2029C7.38882 21.9563 8.42183 22.5275 9.54594 22.9165C10.67 23.3055 11.8216 23.5 13.0006 23.5C14.1796 23.5 15.3311 23.3055 16.4552 22.9165C17.5793 22.5275 18.6123 21.9563 19.5542 21.2029H19.5531ZM13 9.50002C12.0338 9.50002 11.2089 9.84181 10.5254 10.5254C9.8418 11.209 9.50002 12.0338 9.50002 13C9.50002 13.9662 9.8418 14.7911 10.5254 15.4747C11.2089 16.1582 12.0338 16.5 13 16.5C13.9662 16.5 14.7911 16.1582 15.4746 15.4747C16.1582 14.7911 16.5 13.9662 16.5 13C16.5 12.0338 16.1582 11.209 15.4746 10.5254C14.7911 9.84181 13.9662 9.50002 13 9.50002ZM13 2.50002C11.821 2.50002 10.6695 2.69453 9.54538 3.08354C8.42127 3.47256 7.38826 4.04376 6.44634 4.79714L9.78226 8.13306C10.7544 7.48906 11.8268 7.16706 12.9995 7.16706C14.1721 7.16706 15.2445 7.48906 16.2167 8.13306L19.5526 4.79714C18.6106 4.04376 17.5776 3.47256 16.4535 3.08354C15.3294 2.69453 14.1779 2.50002 12.9989 2.50002H13ZM21.2029 6.4469L17.867 9.78282C18.511 10.755 18.833 11.8274 18.833 13C18.833 14.1727 18.511 15.2451 17.867 16.2172L21.2029 19.5531C21.9563 18.6112 22.5275 17.5782 22.9165 16.4541C23.3055 15.33 23.5 14.1784 23.5 12.9995C23.5 11.8205 23.3055 10.6689 22.9165 9.54482C22.5275 8.42071 21.9563 7.3877 21.2029 6.44578V6.4469Z"/></svg>