<svg xmlns="http://www.w3.org/2000/svg" width="32" height="32" fill="none" viewBox="0 0 32 32"><path fill="#000" d="M16 32C7.16373 32 0 24.8363 0 16C0 7.16373 7.16373 0 16 0C24.8363 0 32 7.16373 32 16C32 24.8363 24.8363 32 16 32ZM14.0309 14.9333V22.8107C14.0309 23.2893 14.2211 23.7484 14.5595 24.0869C14.898 24.4253 15.3571 24.6155 15.8357 24.6155C16.3144 24.6155 16.7735 24.4253 17.1119 24.0869C17.4504 23.7484 17.6405 23.2893 17.6405 22.8107V14.9333C17.6405 14.4547 17.4504 13.9956 17.1119 13.6571C16.7735 13.3187 16.3144 13.1285 15.8357 13.1285C15.3571 13.1285 14.898 13.3187 14.5595 13.6571C14.2211 13.9956 14.0309 14.4547 14.0309 14.9333ZM15.8229 7.38453C15.3323 7.38453 14.9152 7.536 14.5707 7.88907C14.2027 8.2176 14.0309 8.6464 14.0309 9.1776C14.0309 9.68213 14.2027 10.1109 14.5707 10.4651C14.9152 10.8181 15.3323 10.9952 15.824 10.9952C16.3059 10.9959 16.7704 10.8155 17.1253 10.4896C17.4688 10.1365 17.6405 9.70773 17.6405 9.1776C17.6405 8.64747 17.4699 8.2176 17.1253 7.88907C16.7819 7.53707 16.3392 7.38453 15.824 7.38453H15.8229Z"/></svg>