<svg width="20" height="26" viewBox="0 0 20 26" fill="none" xmlns="http://www.w3.org/2000/svg">
<path d="M10.4343 22.3381V22.3381C10.8854 22.3384 11.3228 22.1827 11.6724 21.8975L10.4343 22.3381ZM10.4343 22.3381H9.88165C9.43059 22.3374 8.99368 22.1813 8.64411 21.8961C8.46335 21.7485 8.31175 21.5711 8.19493 21.373H12.1222C12.0054 21.5717 11.8536 21.7496 11.6725 21.8975L10.4343 22.3381ZM3.86529 11.1016L3.8653 11.1016C4.16614 12.9063 5.22727 14.4927 6.77514 15.4603H13.5371C15.0849 14.4928 16.146 12.9064 16.4469 11.1016L16.4469 11.1016C16.7554 9.25239 16.2344 7.36097 15.0227 5.93023C13.8107 4.49973 12.0308 3.67467 10.1562 3.67467C8.28134 3.67467 6.5014 4.4997 5.28951 5.93023L3.86529 11.1016ZM3.86529 11.1016C3.55679 9.25236 4.07779 7.36101 5.28946 5.93028L3.86529 11.1016ZM0.818131 9.77823L1.31793 9.79224L0.818131 9.77823C0.728057 12.9934 2.29743 16.0217 4.95975 17.8036V20.3812C4.95975 21.6864 5.47823 22.9383 6.40123 23.8611C7.32425 24.7841 8.57584 25.3026 9.88116 25.3026H10.4354C11.7407 25.3026 12.9922 24.7841 13.9152 23.8611C14.8383 22.9383 15.3568 21.6864 15.3568 20.3812V17.8035C17.9337 16.0777 19.4918 13.1794 19.5001 10.0659H19.5C19.509 6.75625 17.7663 3.68896 14.9189 2.00204L14.9189 2.00203C12.0713 0.315096 8.54384 0.260704 5.6455 1.85905L5.64549 1.85906C2.74722 3.45741 0.910848 6.46978 0.818131 9.77823Z" fill="white" stroke="#2E2E2E"/>
</svg>
