<svg width="20" height="27" viewBox="0 0 20 27" fill="none" xmlns="http://www.w3.org/2000/svg">
<path d="M9.99999 20.25C10.3283 20.25 10.6534 20.1853 10.9567 20.0597C11.26 19.934 11.5356 19.7499 11.7678 19.5177C11.9999 19.2856 12.184 19.01 12.3097 18.7067C12.4353 18.4034 12.5 18.0783 12.5 17.75C12.5 17.4217 12.4353 17.0966 12.3097 16.7933C12.184 16.49 11.9999 16.2144 11.7678 15.9822C11.5356 15.7501 11.26 15.5659 10.9567 15.4403C10.6534 15.3147 10.3283 15.25 9.99999 15.25C9.67168 15.25 9.34659 15.3147 9.04328 15.4403C8.73997 15.5659 8.46437 15.7501 8.23222 15.9822C8.00008 16.2144 7.81593 16.49 7.69029 16.7933C7.56466 17.0966 7.49999 17.4217 7.49999 17.75C7.49999 18.0783 7.56466 18.4034 7.69029 18.7067C7.81593 19.01 8.00008 19.2856 8.23222 19.5177C8.46437 19.7499 8.73997 19.934 9.04328 20.0597C9.34659 20.1853 9.67168 20.25 9.99999 20.25ZM17.5 8.99999C17.8283 8.99999 18.1534 9.06466 18.4567 9.19029C18.76 9.31593 19.0356 9.50008 19.2677 9.73223C19.4999 9.96437 19.684 10.24 19.8097 10.5433C19.9353 10.8466 20 11.1717 20 11.5V24C20 24.3283 19.9353 24.6534 19.8097 24.9567C19.684 25.26 19.4999 25.5356 19.2677 25.7677C19.0356 25.9999 18.76 26.184 18.4567 26.3097C18.1534 26.4353 17.8283 26.5 17.5 26.5H2.5C2.17169 26.5 1.8466 26.4353 1.54329 26.3097C1.23998 26.184 0.964378 25.9999 0.732232 25.7677C0.500086 25.5356 0.315937 25.26 0.190301 24.9567C0.0646641 24.6534 -3.84732e-09 24.3283 0 24V11.5C-3.84732e-09 11.1717 0.0646641 10.8466 0.190301 10.5433C0.315937 10.24 0.500086 9.96437 0.732232 9.73223C0.964378 9.50008 1.23998 9.31593 1.54329 9.19029C1.8466 9.06466 2.17169 8.99999 2.5 8.99999H3.75V6.49999C3.75 4.84239 4.40847 3.25268 5.58058 2.08058C6.75268 0.90848 8.34239 0.25 9.99999 0.25C11.6576 0.25 13.2473 0.90848 14.4194 2.08058C15.5915 3.25268 16.25 4.84239 16.25 6.49999V8.99999H17.5ZM9.99999 2.75C9.00543 2.75 8.0516 3.14509 7.34834 3.84835C6.64508 4.55161 6.24999 5.50543 6.24999 6.49999V8.99999H13.75V6.49999C13.75 5.50543 13.3549 4.55161 12.6516 3.84835C11.9484 3.14509 10.9945 2.75 9.99999 2.75Z" fill="black"/>
</svg>
