<svg xmlns="http://www.w3.org/2000/svg" class="svg-icon" version="1.1" viewBox="0 0 1024 1024" style="width:1em;height:1em;vertical-align:middle;fill:currentColor;overflow:hidden"><path d="M727.168548 648.936789c0.00614 0 0.010233-0.002047 0.01535-0.002047 0.008186 0 0.01535 0.002047 0.021489 0.002047L727.168548 648.936789zM864.120686 785.871531l0-19.562545c0 64.823378-61.306274 117.374244-136.935766 117.374244-75.626421 0-136.935766-52.549843-136.935766-117.374244 0-47.939849 33.633005-89.020476 81.690534-107.244536l0.062422 0.121773c4.909823-2.220574 10.31902-3.52529 16.058744-3.52529 21.608134 0 39.125089 17.517979 39.125089 39.125089 0 14.296611-7.748475 26.671453-19.194154 33.498952l0.575098 1.101077c-23.228027 5.211698-40.067554 19.683295-40.067554 36.923958 0 21.608134 26.276457 39.125089 58.68661 39.125089 32.413224 0 58.68661-17.515932 58.68661-39.125089 0-0.563842-0.212848-1.085728-0.248663-1.64343l18.588357-115.728768-0.281409 0 42.135656-273.874601-314.502927 0c-21.60711 0-39.125089-17.515932-39.125089-39.123043 0-21.61018 17.517979-39.125089 39.125089-39.125089l326.540078 0 6.019087-39.126112c0-21.608134-17.515932-39.123043-39.125089-39.123043l-352.119663 0c-21.608134 0-39.125089 17.513886-39.125089 39.123043l-78.249155 508.62002c0 64.823378-61.310368 117.374244-136.937812 117.374244S81.630159 831.132364 81.630159 766.308987s61.306274-117.374244 136.933719-117.374244c27.913746 0 53.809533 7.241938 75.459622 19.532869l61.47819-430.339142c0-54.021358 43.790342-97.8117 97.8117-97.8117l391.245775 0c54.019311 0 97.809653 43.790342 97.809653 97.8117L864.120686 785.871531zM218.563878 727.183897c-32.411177 0-58.68661 17.517979-58.68661 39.125089 0 21.608134 26.276457 39.125089 58.68661 39.125089 32.413224 0 58.68661-17.515932 58.68661-39.125089C277.251511 744.701876 250.977102 727.183897 218.563878 727.183897z"/></svg>