<svg xmlns="http://www.w3.org/2000/svg" class="svg-icon" version="1.1" viewBox="0 0 1024 1024" style="width:1em;height:1em;vertical-align:middle;fill:currentColor;overflow:hidden"><path d="M735.059262 155.203828c-3.090385 0-115.797329 0-118.887714 0-19.643386 0-35.567054 15.923668-35.567054 35.567054 0 3.090385 0 639.366829 0 642.457214 0 19.643386 15.923668 35.567054 35.567054 35.567054 3.090385 0 115.797329 0 118.887714 0 19.643386 0 35.567054-15.923668 35.567054-35.567054 0-3.090385 0-639.366829 0-642.457214C770.626315 171.128519 754.702648 155.203828 735.059262 155.203828z"/><path d="M407.828452 155.203828c-3.090385 0-115.797329 0-118.887714 0-19.643386 0-35.567054 15.923668-35.567054 35.567054 0 3.090385 0 639.366829 0 642.457214 0 19.643386 15.923668 35.567054 35.567054 35.567054 3.090385 0 115.797329 0 118.887714 0 19.643386 0 35.567054-15.923668 35.567054-35.567054 0-3.090385 0-639.366829 0-642.457214C443.395506 171.128519 427.471838 155.203828 407.828452 155.203828z"/></svg>