<svg xmlns="http://www.w3.org/2000/svg" width="26" height="26" fill="none" viewBox="0 0 26 26"><path fill="#000" d="M13 0.69751C10.5668 0.69751 8.18826 1.41904 6.16512 2.77085C4.14198 4.12267 2.56514 6.04405 1.63399 8.29204C0.70284 10.54 0.459209 13.0136 0.933905 15.4001C1.4086 17.7865 2.5803 19.9786 4.30084 21.6992C6.02138 23.4197 8.21347 24.5914 10.5999 25.0661C12.9864 25.5408 15.46 25.2972 17.708 24.366C19.956 23.4349 21.8774 21.858 23.2292 19.8349C24.581 17.8118 25.3025 15.4332 25.3025 13C25.3025 9.73718 24.0064 6.60799 21.6992 4.30083C19.3921 1.99366 16.2629 0.69751 13 0.69751ZM13 4.39001C13.7303 4.39001 14.4442 4.60657 15.0515 5.01231C15.6587 5.41804 16.132 5.99473 16.4115 6.66945C16.6909 7.34416 16.7641 8.0866 16.6216 8.80288C16.4791 9.51915 16.1274 10.1771 15.611 10.6935C15.0946 11.2099 14.4367 11.5616 13.7204 11.7041C13.0041 11.8465 12.2617 11.7734 11.587 11.4939C10.9123 11.2145 10.3356 10.7412 9.92982 10.1339C9.52409 9.52672 9.30752 8.81281 9.30752 8.08251C9.30637 7.59728 9.40109 7.1166 9.58625 6.66808C9.77141 6.21957 10.0434 5.81205 10.3865 5.46894C10.7296 5.12583 11.1371 4.85389 11.5856 4.66873C12.0341 4.48358 12.5148 4.38885 13 4.39001ZM13 21.89C11.5389 21.8891 10.1008 21.5267 8.81376 20.8351C7.52673 20.1435 6.43083 19.1442 5.62377 17.9262C5.62377 15.4762 10.5413 14.1375 13 14.1375C15.4588 14.1375 20.3413 15.4762 20.3763 17.9262C19.5652 19.1377 18.4676 20.1302 17.1808 20.8156C15.894 21.5009 14.4579 21.858 13 21.855V21.89Z"/></svg>