<svg width="30" height="30" viewBox="0 0 30 30" fill="none" xmlns="http://www.w3.org/2000/svg">
<path d="M15 0.940002C12.2192 0.940002 9.5008 1.76461 7.18864 3.30954C4.87648 4.85447 3.07437 7.05034 2.0102 9.61947C0.946033 12.1886 0.667598 15.0156 1.21011 17.743C1.75262 20.4703 3.0917 22.9756 5.05803 24.9419C7.02436 26.9082 9.52962 28.2473 12.257 28.7898C14.9844 29.3323 17.8114 29.0539 20.3805 27.9897C22.9496 26.9256 25.1455 25.1235 26.6904 22.8113C28.2354 20.4992 29.06 17.7808 29.06 15C29.06 11.2711 27.5787 7.69484 24.9419 5.05808C22.3051 2.42132 18.7289 0.940002 15 0.940002ZM15 5.16C15.8346 5.16 16.6505 5.4075 17.3445 5.8712C18.0385 6.3349 18.5793 6.99397 18.8987 7.76507C19.2181 8.53618 19.3017 9.38468 19.1389 10.2033C18.9761 11.0219 18.5741 11.7738 17.984 12.364C17.3938 12.9542 16.6418 13.3561 15.8232 13.5189C15.0046 13.6817 14.1561 13.5982 13.385 13.2788C12.6139 12.9594 11.9549 12.4185 11.4912 11.7245C11.0275 11.0305 10.78 10.2146 10.78 9.38C10.7786 8.82545 10.8869 8.2761 11.0985 7.76351C11.3101 7.25093 11.6209 6.78519 12.013 6.39307C12.4052 6.00094 12.8709 5.69015 13.3835 5.47854C13.8961 5.26693 14.4454 5.15868 15 5.16ZM15 25.16C13.3302 25.159 11.6865 24.7448 10.2157 23.9544C8.74476 23.164 7.49231 22.0219 6.56995 20.63C6.56995 17.83 12.19 16.3 15 16.3C17.81 16.3 23.39 17.83 23.43 20.63C22.503 22.0145 21.2486 23.1488 19.778 23.9321C18.3074 24.7153 16.6661 25.1234 15 25.12V25.16Z" fill="black"/>
</svg>
