<svg xmlns="http://www.w3.org/2000/svg" width="35" height="35" fill="none" viewBox="0 0 35 35"><path fill="#000" d="M10.714 5.2364C10.9974 5.42387 11.2867 5.63758 11.5816 5.87737C11.877 6.11713 12.1424 6.39345 12.3785 6.70617C12.4965 6.87287 12.6382 7.06048 12.8035 7.26901C12.9688 7.47743 13.1221 7.68596 13.2638 7.89445C13.4126 8.10078 13.6019 8.31627 13.7504 8.53924H21.1063C21.2498 8.35313 21.4248 8.15933 21.5499 7.95699C21.6679 7.76938 21.7978 7.58173 21.9394 7.39415C22.081 7.20654 22.2109 7.0397 22.3289 6.89382C22.5651 6.60187 22.8011 6.32566 23.0372 6.06512C23.2731 5.80441 23.6155 5.54902 24.064 5.29904C24.2528 5.19471 24.4124 5.05928 24.542 4.89244C24.6719 4.72574 24.7544 4.55891 24.7899 4.39225C24.8255 4.22541 24.8019 4.06389 24.7193 3.90741C24.6364 3.75117 24.4772 3.63134 24.2412 3.54778C24.0286 3.48531 23.8457 3.4644 23.6923 3.48531C23.5389 3.50609 23.3851 3.54281 23.232 3.59482C23.0786 3.64697 22.9191 3.70416 22.7539 3.7668C22.5887 3.82927 22.3879 3.86068 22.152 3.86068C21.9158 3.86068 21.7213 3.82416 21.5677 3.75134C21.4143 3.67824 21.2724 3.58968 21.1427 3.48549C21.013 3.38129 20.8772 3.27196 20.7356 3.15713C20.5938 3.04248 20.4051 2.95388 20.1688 2.89128C19.6968 2.72458 19.3188 2.69335 19.0358 2.79757C18.7525 2.90173 18.4692 3.06857 18.1858 3.29777C17.9497 3.50644 17.7609 3.65232 17.6192 3.7356C17.5484 3.77729 17.4893 3.79824 17.4422 3.79824C17.3005 3.7356 17.1706 3.66264 17.0527 3.57922C16.9346 3.5169 16.8224 3.44894 16.7164 3.37587C16.6101 3.30305 16.5097 3.21463 16.4154 3.11016C16.2265 2.94346 15.9431 2.83398 15.5653 2.7818C15.1876 2.72979 14.8454 2.78708 14.5386 2.95378C14.1371 3.18326 13.8537 3.37587 13.6885 3.53239C13.5233 3.68863 13.2754 3.7981 12.9448 3.86075C12.7562 3.90233 12.5496 3.89188 12.3251 3.8292C12.1008 3.76673 11.8707 3.70423 11.6348 3.64176C11.3989 3.57898 11.1745 3.53757 10.9619 3.51662C10.7495 3.4957 10.5607 3.53757 10.3952 3.64176C10.0649 3.87107 9.95854 4.14741 10.0766 4.47031C10.1948 4.79307 10.4072 5.04865 10.714 5.2364Z"/><path fill="#000" d="M28.8358 20.1369C28.6738 19.1053 28.3878 18.1931 27.9775 17.4009C27.5671 16.6087 27.087 15.9155 26.5362 15.3214C25.9857 14.7273 25.4515 14.2112 24.9332 13.7734C24.3071 13.2732 23.7567 12.7989 23.2815 12.3506C22.8067 11.9023 22.4073 11.4936 22.0834 11.1394C21.7246 10.7739 21.4216 10.2347 21.1732 9.84998H13.7625C13.4965 10.3746 13.1935 10.8034 12.8534 11.1708C12.5511 11.5251 12.1732 11.9197 11.7197 12.347C11.2665 12.7742 10.759 13.2295 10.1977 13.709C9.54981 14.251 8.95071 14.867 8.40025 15.555C7.84965 16.2429 7.39087 16.9991 7.02376 17.8224C6.65661 18.6461 6.403 19.5271 6.26271 20.4652C6.12238 21.4034 6.14938 22.3832 6.34361 23.4048C6.51622 24.3219 6.87255 25.2447 7.41238 26.1724C7.95206 27.1002 8.68058 27.9392 9.59812 28.6895C10.5158 29.4403 11.6332 30.05 12.9504 30.519C14.2673 30.9883 15.7786 31.2227 17.4843 31.2227C19.1468 31.2227 20.6313 31.0194 21.9375 30.613C23.2437 30.2065 24.3717 29.6593 25.3217 28.9712C26.2719 28.2832 27.0332 27.4755 27.6051 26.5476C28.1774 25.6199 28.5607 24.6348 28.7549 23.5926C28.9706 22.3206 28.9976 21.1688 28.8358 20.1369ZM19.6065 25.3267C19.6041 25.3267 18.4396 25.3271 18.4396 25.3271C18.4396 25.7994 18.0585 26.1392 17.5861 26.1392C17.1138 26.1392 16.7328 25.6942 16.7328 25.1696H14.6107C14.1384 25.1696 13.7555 24.8654 13.7555 24.393C13.7555 23.9207 14.1384 23.5772 14.6107 23.5772L19.5996 23.5965C20.0679 23.5927 20.4478 23.2207 20.4478 22.7515C20.4478 22.2823 20.0679 21.9054 19.5996 21.9015L15.6015 21.9036C14.1845 21.9036 13.0359 20.7039 13.0359 19.287C13.0359 17.87 14.1845 16.6703 15.6015 16.6703H16.7328C16.7515 16.1107 17.1258 15.8508 17.5861 15.8508C18.0465 15.8508 18.4208 16.1107 18.4396 16.6703H20.5973C21.0696 16.6703 21.4525 17.02 21.4525 17.4923C21.4525 17.9646 21.0696 18.3142 20.5973 18.3142H15.6015C15.1299 18.3142 14.7462 18.7834 14.7462 19.2549C14.7462 19.7265 15.1299 20.1529 15.6015 20.1529C15.6038 20.1529 19.6041 20.1747 19.6064 20.1747C21.0169 20.1822 22.1581 21.3384 22.1581 22.7507C22.1582 24.163 21.017 25.3192 19.6065 25.3267Z"/></svg>