<svg width="25" height="25" viewBox="0 0 25 25" fill="none" xmlns="http://www.w3.org/2000/svg">
<path d="M9.8214 20.0893C9.8214 20.1265 9.82605 20.2195 9.83535 20.3683C9.84465 20.5171 9.84698 20.6404 9.84233 20.738C9.83768 20.8357 9.82373 20.945 9.80047 21.0659C9.77722 21.1868 9.73072 21.2775 9.66097 21.3379C9.59121 21.3984 9.49588 21.4286 9.37497 21.4286H4.91068C3.80391 21.4286 2.85757 21.0356 2.07167 20.2497C1.28577 19.4638 0.892822 18.5175 0.892822 17.4107V7.58929C0.892822 6.48252 1.28577 5.53618 2.07167 4.75028C2.85757 3.96438 3.80391 3.57143 4.91068 3.57143H9.37497C9.49588 3.57143 9.60051 3.6156 9.68887 3.70396C9.77722 3.79232 9.8214 3.89695 9.8214 4.01786C9.8214 4.05506 9.82605 4.14806 9.83535 4.29687C9.84465 4.44568 9.84698 4.56892 9.84233 4.66657C9.83768 4.76423 9.82373 4.87351 9.80047 4.99442C9.77722 5.11533 9.73072 5.20601 9.66097 5.26646C9.59121 5.32691 9.49588 5.35714 9.37497 5.35714H4.91068C4.29684 5.35714 3.77136 5.57571 3.33423 6.01283C2.8971 6.44996 2.67854 6.97545 2.67854 7.58929V17.4107C2.67854 18.0246 2.8971 18.55 3.33423 18.9872C3.77136 19.4243 4.29684 19.6429 4.91068 19.6429H9.26336L9.4238 19.6568L9.58424 19.6987L9.69584 19.7754L9.7935 19.901L9.8214 20.0893ZM22.7678 12.5C22.7678 12.7418 22.6795 12.9511 22.5028 13.1278L14.9135 20.7171C14.7368 20.8938 14.5275 20.9822 14.2857 20.9822C14.0439 20.9822 13.8346 20.8938 13.6579 20.7171C13.4812 20.5404 13.3928 20.3311 13.3928 20.0893V16.0714H7.14283C6.90101 16.0714 6.69175 15.9831 6.51504 15.8064C6.33833 15.6297 6.24997 15.4204 6.24997 15.1786V9.82143C6.24997 9.57962 6.33833 9.37035 6.51504 9.19364C6.69175 9.01693 6.90101 8.92857 7.14283 8.92857H13.3928V4.91071C13.3928 4.6689 13.4812 4.45963 13.6579 4.28292C13.8346 4.10621 14.0439 4.01786 14.2857 4.01786C14.5275 4.01786 14.7368 4.10621 14.9135 4.28292L22.5028 11.8722C22.6795 12.0489 22.7678 12.2582 22.7678 12.5Z" fill="black"/>
</svg>
