<svg xmlns="http://www.w3.org/2000/svg" class="svg-icon" version="1.1" viewBox="0 0 1024 1024" style="width:1em;height:1em;vertical-align:middle;fill:currentColor;overflow:hidden"><path d="M512 512a128 128 0 0 0-128 128 128 128 0 0 0 128 128 128 128 0 0 0 128-128 128 128 0 0 0-128-128m0 341.333333a213.333333 213.333333 0 0 1-213.333333-213.333333 213.333333 213.333333 0 0 1 213.333333-213.333333 213.333333 213.333333 0 0 1 213.333333 213.333333 213.333333 213.333333 0 0 1-213.333333 213.333333m0-682.666666a85.333333 85.333333 0 0 1 85.333333 85.333333 85.333333 85.333333 0 0 1-85.333333 85.333333 85.333333 85.333333 0 0 1-85.333333-85.333333c0-47.36 37.973333-85.333333 85.333333-85.333333m213.333333-85.333334H298.666667c-47.36 0-85.333333 37.973333-85.333334 85.333334v682.666666a85.333333 85.333333 0 0 0 85.333334 85.333334h426.666666a85.333333 85.333333 0 0 0 85.333334-85.333334V170.666667a85.333333 85.333333 0 0 0-85.333334-85.333334z"/></svg>