<svg width="15" height="22" viewBox="0 0 15 22" fill="none" xmlns="http://www.w3.org/2000/svg">
<path d="M12.75 22H2.25C1.65317 22 1.08099 21.7517 0.658929 21.3097C0.237051 20.8676 0 20.2681 0 19.6429V2.35714C0 1.73189 0.237051 1.13246 0.658929 0.690306C1.08097 0.24834 1.65317 0 2.25 0H12.75C13.3468 0 13.919 0.24834 14.3411 0.690306C14.7629 1.13245 15 1.73189 15 2.35714V19.6429C15 20.2681 14.7629 20.8675 14.3411 21.3097C13.919 21.7517 13.3468 22 12.75 22ZM2.25 1.57143C2.05112 1.57143 1.86027 1.65421 1.71964 1.80153C1.57902 1.94885 1.5 2.14879 1.5 2.35714V19.6429C1.5 19.8512 1.57902 20.0511 1.71964 20.1985C1.86027 20.3458 2.05112 20.4286 2.25 20.4286H12.75C12.9489 20.4286 13.1397 20.3458 13.2804 20.1985C13.421 20.0511 13.5 19.8512 13.5 19.6429V2.35714C13.5 2.14879 13.421 1.94885 13.2804 1.80153C13.1397 1.65421 12.9489 1.57143 12.75 1.57143H2.25ZM7.5 11C6.50541 11 5.55167 10.5861 4.84839 9.84931C4.1451 9.11253 3.75 8.11338 3.75 7.07143C3.75 6.02948 4.14509 5.03032 4.84839 4.29355C5.55168 3.55677 6.50541 3.14286 7.5 3.14286C8.49459 3.14286 9.44833 3.55676 10.1516 4.29355C10.8549 5.03033 11.25 6.02948 11.25 7.07143C11.25 8.11338 10.8549 9.11253 10.1516 9.84931C9.44832 10.5861 8.49459 11 7.5 11ZM7.5 4.71429C6.90317 4.71429 6.33099 4.96263 5.90893 5.40459C5.48705 5.84673 5.25 6.44618 5.25 7.07143C5.25 7.69668 5.48705 8.29611 5.90893 8.73827C6.33097 9.18023 6.90317 9.42857 7.5 9.42857C8.09683 9.42857 8.66901 9.18023 9.09107 8.73827C9.51295 8.29612 9.75 7.69668 9.75 7.07143C9.75 6.44618 9.51295 5.84675 9.09107 5.40459C8.66903 4.96263 8.09683 4.71429 7.5 4.71429ZM7.5 18.8571C6.70431 18.8571 5.94124 18.526 5.37874 17.9366C4.81607 17.3473 4.5 16.5479 4.5 15.7143C4.5 14.8807 4.81607 14.0813 5.37874 13.492C5.94124 12.9026 6.70431 12.5714 7.5 12.5714C8.29569 12.5714 9.05876 12.9026 9.62126 13.492C10.1839 14.0813 10.5 14.8807 10.5 15.7143C10.5 16.5479 10.1839 17.3473 9.62126 17.9366C9.05876 18.526 8.29569 18.8571 7.5 18.8571ZM7.5 14.1429C7.10223 14.1429 6.72069 14.3084 6.43929 14.6031C6.15804 14.8979 6 15.2976 6 15.7143C6 16.131 6.15804 16.5307 6.43929 16.8255C6.7207 17.1202 7.10224 17.2857 7.5 17.2857C7.89776 17.2857 8.27931 17.1202 8.56071 16.8255C8.84196 16.5307 9 16.131 9 15.7143C9 15.2976 8.84196 14.8979 8.56071 14.6031C8.2793 14.3084 7.89776 14.1429 7.5 14.1429Z" fill="black"/>
</svg>
