<svg xmlns="http://www.w3.org/2000/svg" width="26" height="26" fill="none" viewBox="0 0 26 26"><path fill="#000" d="M25.7711 10.0412C25.6577 9.69247 25.3562 9.43831 24.9933 9.38557L17.3032 8.26832L13.8641 1.30115C13.7017 0.972405 13.3668 0.764282 13.0001 0.764282C12.6334 0.764282 12.2984 0.972433 12.1361 1.30115L8.69688 8.26832L1.00676 9.38557C0.643793 9.43831 0.342382 9.69244 0.228946 10.0412C0.115623 10.39 0.210115 10.7728 0.472773 11.0288L6.03739 16.4519L4.72374 24.1095C4.66176 24.4709 4.81031 24.8362 5.10697 25.0516C5.40373 25.2671 5.79706 25.2956 6.12167 25.125L13.0001 21.5095L19.8783 25.125C20.0193 25.1991 20.1732 25.2356 20.3266 25.2356C20.5263 25.2356 20.7251 25.1736 20.893 25.0516C21.1897 24.8362 21.3383 24.4709 21.2763 24.1095L19.9627 16.4519L25.5273 11.0288C25.79 10.7728 25.8844 10.39 25.7711 10.0412Z"/></svg>