<svg xmlns="http://www.w3.org/2000/svg" class="svg-icon" version="1.1" viewBox="0 0 1024 1024" style="width:1em;height:1em;vertical-align:middle;fill:currentColor;overflow:hidden"><path d="M512 832c35.34848 0 64 28.65152 64 64l0 64c0 35.34848-28.65152 64-64 64s-64-28.65152-64-64l0-64c0-35.34848 28.65152-64 64-64zM512 192c-35.34848 0-64-28.65152-64-64l0-64c0-35.34848 28.65152-64 64-64s64 28.65152 64 64l0 64c0 35.34848-28.65152 64-64 64zM960 448c35.34848 0 64 28.65152 64 64s-28.65152 64-64 64l-64 0c-35.34848 0-64-28.65152-64-64s28.65152-64 64-64l64 0zM192 512c0 35.34848-28.65152 64-64 64l-64 0c-35.34848 0-64-28.65152-64-64s28.65152-64 64-64l64 0c35.34848 0 64 28.65152 64 64zM828.78464 738.28352l45.2608 45.2608c24.9856 24.9856 24.9856 65.51552 0 90.50112s-65.51552 24.9856-90.50112 0l-45.2608-45.2608c-24.9856-24.9856-24.9856-65.51552 0-90.50112s65.51552-24.9856 90.50112 0zM195.21536 285.71648l-45.2608-45.2608c-24.9856-24.9856-24.9856-65.51552 0-90.50112s65.51552-24.9856 90.50112 0l45.2608 45.2608c24.9856 24.9856 24.9856 65.51552 0 90.50112s-65.51552 24.9856-90.50112 0zM828.78464 285.71648c-24.9856 24.9856-65.51552 24.9856-90.50112 0s-24.9856-65.51552 0-90.50112l45.2608-45.2608c24.9856-24.9856 65.51552-24.9856 90.50112 0s24.9856 65.51552 0 90.50112l-45.2608 45.2608zM195.21536 738.28352c24.9856-24.9856 65.51552-24.9856 90.50112 0s24.9856 65.51552 0 90.50112l-45.2608 45.2608c-24.9856 24.9856-65.51552 24.9856-90.50112 0s-24.9856-65.51552 0-90.50112l45.2608-45.2608z"/><path d="M512 256c-141.39392 0-256 114.60608-256 256s114.60608 256 256 256c141.37344 0 256-114.62656 256-256s-114.60608-256-256-256zM512 672.01024c-88.3712 0-160.01024-71.63904-160.01024-160.01024s71.63904-160.01024 160.01024-160.01024 160.01024 71.63904 160.01024 160.01024-71.63904 160.01024-160.01024 160.01024z"/></svg>