<svg xmlns="http://www.w3.org/2000/svg" width="25" height="21" fill="none" viewBox="0 0 25 21"><path fill="#000" d="M25.0087 16.3333C25.0087 17.5833 24.5087 17.8333 22.5921 17.8333C22.0921 12.9999 19.6754 10.6666 17.1754 9.49995C18.8421 7.24995 18.9254 3.99994 17.3421 1.58327C19.2587 0.999942 21.2587 2.33327 21.7587 4.41662C22.1754 6.24994 21.3421 8.24995 19.6754 8.99995C22.8421 9.83327 25.0087 12.8333 25.0087 16.3333ZM14.7587 9.91662C17.8421 10.5833 21.4254 12.7499 21.4254 19C21.4254 20.6666 19.3421 20.6666 12.5921 20.6666C5.75874 20.6666 3.75874 20.6666 3.75874 19C3.75874 12.8333 7.34206 10.5833 10.4254 9.91662C8.00874 8.58327 7.17539 5.49994 8.34209 2.99994C9.50879 0.499942 12.4254 -0.416733 14.6754 0.916617C16.9254 2.24997 17.8421 5.33327 16.5921 7.74995C16.1754 8.74995 15.5088 9.41662 14.7588 9.91662H14.7587ZM7.84206 9.49995C5.34207 10.6666 2.92539 13.0833 2.42539 17.8333C0.508745 17.8333 0.00874505 17.5833 0.00874505 16.3333C-0.15793 12.8333 2.09207 9.74995 5.25874 8.99995C3.42539 8.08327 2.59207 5.83327 3.42539 3.83327C4.17539 2.08327 5.92539 1.16662 7.67539 1.66662C6.09207 3.99994 6.17539 7.16662 7.84206 9.49995Z"/></svg>