<svg width="24" height="21" viewBox="0 0 24 21" fill="none" xmlns="http://www.w3.org/2000/svg">
<path d="M3.57711 17.2964L3.58784 17.446C5.24265 17.3273 7.13074 17.2726 9.05226 17.2598V18.7599H7.57572C7.19205 18.7599 6.88065 19.0713 6.88065 19.4549C6.88065 19.8386 7.19205 20.15 7.57572 20.15H16.2272C16.6109 20.15 16.9223 19.8386 16.9223 19.4549C16.9223 19.0713 16.6109 18.7599 16.2272 18.7599H14.7507V17.2598C16.6721 17.2726 18.5601 17.3273 20.215 17.446C20.9174 17.4992 21.6189 17.2512 22.1354 16.7695C22.6545 16.2877 22.9529 15.6024 22.9529 14.8916V3.40145C22.9529 2.68329 22.6473 1.99312 22.1144 1.51112L22.1141 1.51092C21.5769 1.02694 20.8547 0.79091 20.1368 0.862632L20.1367 0.862649C17.4031 1.13893 14.652 1.27829 11.9013 1.27829C9.15063 1.27829 6.39977 1.13909 3.66633 0.86265L3.66614 0.862631C2.94831 0.790926 2.22614 1.02696 1.68887 1.51092L1.39863 1.77237H1.43836C1.06107 2.22712 0.85 2.80463 0.85 3.40145V14.8916C0.85 15.6023 1.14838 16.2875 1.66739 16.7694C2.18387 17.2513 2.88569 17.4993 3.58847 17.4459L3.57711 17.2964ZM3.57711 17.2964C2.91644 17.3466 2.25577 17.1133 1.76972 16.6597L9.05226 17.1098C7.12853 17.1226 5.23657 17.1773 3.57711 17.2964ZM11.8996 17.2697V17.2697L11.9033 17.2697C12.3855 17.2638 12.8728 17.2596 13.3605 17.2589V18.7598H10.4424V17.2589C10.9301 17.2596 11.4175 17.2638 11.8996 17.2697ZM2.61563 15.7522L2.6152 15.7518C2.37329 15.5273 2.24022 15.2225 2.24022 14.8914L2.23983 3.40126C2.23983 3.40125 2.23983 3.40125 2.23983 3.40125C2.23984 3.06863 2.37452 2.76453 2.61996 2.54231C2.86982 2.31768 3.19392 2.21183 3.52634 2.24661L3.52681 2.24666C6.30516 2.5284 9.10293 2.66826 11.901 2.66826C14.6991 2.66826 17.4971 2.52854 20.2756 2.24666L20.2761 2.24661C20.6084 2.21184 20.9326 2.31767 21.1824 2.54224C21.4278 2.76451 21.5625 3.06848 21.5625 3.40126V14.8914C21.5625 15.2225 21.4294 15.5272 21.1875 15.7518L21.1871 15.7522C20.9495 15.9744 20.6393 16.0842 20.3147 16.061C17.7932 15.8773 14.7891 15.8425 11.9013 15.8752C9.01378 15.8425 6.00968 15.8773 3.48797 16.061C3.16338 16.0842 2.85323 15.9744 2.61563 15.7522Z" fill="black" stroke="black" stroke-width="0.3"/>
</svg>
