<svg xmlns="http://www.w3.org/2000/svg" width="25" height="25" fill="none" viewBox="0 0 25 25"><g clip-path="url(#clip0_109_1043)"><path fill="#000" d="M12.4979 24.9998C11.2064 25.0034 9.92702 24.7507 8.73381 24.2565C7.54061 23.7623 6.45728 23.0363 5.54651 22.1207L2.87499 19.4505C-0.958331 15.6179 -0.958331 9.38113 2.87499 5.5492L5.54582 2.87907C6.45658 1.96339 7.53992 1.23744 8.73312 0.74323C9.92632 0.249023 11.2057 -0.0036227 12.4972 -8.54347e-05C15.1236 -8.54347e-05 17.593 1.02213 19.4499 2.87907L22.1201 5.5492C23.036 6.45971 23.7621 7.54288 24.2564 8.73599C24.7508 9.92909 25.0035 11.2084 24.9999 12.4999C24.9999 15.1249 23.977 17.5943 22.1201 19.4512L19.4499 22.1207C18.5391 23.0364 17.4556 23.7623 16.2623 24.2565C15.069 24.7507 13.7895 25.0034 12.4979 24.9998ZM12.4979 2.08324C11.48 2.08035 10.4716 2.27938 9.53107 2.66881C8.59057 3.05824 7.73665 3.63033 7.01873 4.35198L4.3486 7.02211C1.32777 10.0429 1.32777 14.9568 4.3486 17.9776L7.01942 20.6478C7.73726 21.3693 8.59107 21.9414 9.53144 22.3308C10.4718 22.7202 11.4801 22.9193 12.4979 22.9165C14.5673 22.9165 16.5131 22.1109 17.977 20.6478L20.6472 17.9776C21.3687 17.2599 21.9407 16.4062 22.3301 15.466C22.7196 14.5257 22.9187 13.5176 22.9159 12.4999C22.9159 10.4304 22.1104 8.4853 20.6472 7.02211L17.977 4.35198C17.259 3.63043 16.4051 3.05839 15.4646 2.66897C14.5242 2.27955 13.5158 2.08047 12.4979 2.08324Z"/><path fill="#000" d="M14.9306 9.02778H10.7639C10.4876 9.02778 10.2227 8.91804 10.0273 8.72269C9.83199 8.52734 9.72224 8.26239 9.72224 7.98612C9.72224 7.70986 9.83199 7.4449 10.0273 7.24955C10.2227 7.0542 10.4876 6.94446 10.7639 6.94446H14.9306C15.2068 6.94446 15.4718 7.0542 15.6671 7.24955C15.8625 7.4449 15.9722 7.70986 15.9722 7.98612C15.9722 8.26239 15.8625 8.52734 15.6671 8.72269C15.4718 8.91804 15.2068 9.02778 14.9306 9.02778ZM17.0139 13.1944H8.68058C8.40431 13.1944 8.13936 13.0847 7.94401 12.8893C7.74866 12.694 7.63892 12.429 7.63892 12.1528C7.63892 11.8765 7.74866 11.6116 7.94401 11.4162C8.13936 11.2209 8.40431 11.1111 8.68058 11.1111H17.0139C17.2902 11.1111 17.5551 11.2209 17.7505 11.4162C17.9458 11.6116 18.0556 11.8765 18.0556 12.1528C18.0556 12.429 17.9458 12.694 17.7505 12.8893C17.5551 13.0847 17.2902 13.1944 17.0139 13.1944ZM14.9326 17.3611H10.766C10.4897 17.3611 10.2248 17.2513 10.0294 17.056C9.83407 16.8606 9.72433 16.5957 9.72433 16.3194C9.72433 16.0432 9.83407 15.7782 10.0294 15.5829C10.2248 15.3875 10.4897 15.2778 10.766 15.2778H14.9326C15.2089 15.2778 15.4739 15.3875 15.6692 15.5829C15.8646 15.7782 15.9743 16.0432 15.9743 16.3194C15.9743 16.5957 15.8646 16.8606 15.6692 17.056C15.4739 17.2513 15.2089 17.3611 14.9326 17.3611Z"/></g><defs><clipPath id="clip0_109_1043"><rect width="25" height="25" fill="#fff"/></clipPath></defs></svg>