<svg xmlns="http://www.w3.org/2000/svg" width="25" height="25" fill="none" viewBox="0 0 25 25"><path fill="#000" d="M23.0444 12.8808C23.0444 7.06542 18.3301 2.35352 12.5171 2.35352C6.71143 2.35352 2.00195 7.05566 1.98975 12.8589V14.9853C1.98975 15.5664 2.46094 16.0376 3.04199 16.0376C3.62305 16.0376 4.09424 15.5664 4.09424 14.9853V12.8711C4.09668 11.7358 4.31885 10.6372 4.75586 9.60448C5.61279 7.58544 7.21924 5.97656 9.23828 5.12207C10.2759 4.68261 11.377 4.46045 12.5146 4.46045C13.6523 4.46045 14.7559 4.68261 15.791 5.12207C17.8101 5.979 19.4189 7.58544 20.2734 9.60448C20.7129 10.6421 20.9351 11.7432 20.9351 12.8808C20.9351 14.0185 20.7129 15.1221 20.2734 16.1572C19.4238 18.1787 17.8149 19.7851 15.7959 20.6421C14.7583 21.0815 13.6572 21.3037 12.5195 21.3037H4.09668V19.1992C4.09668 18.6181 3.62549 18.147 3.04443 18.147C2.46338 18.147 1.99219 18.6181 1.99219 19.1992V22.3584C1.99219 22.9394 2.46338 23.4106 3.04443 23.4106H12.6465C12.6685 23.4106 12.688 23.4106 12.7075 23.4082C18.4326 23.3056 23.0444 18.6328 23.0444 12.8808Z"/><path fill="#000" d="M13.2959 14.0332C13.2959 13.1787 13.8403 12.854 14.458 12.3267C14.9292 11.9263 15.5103 11.2744 15.5103 10.1831V9.43848C15.5103 7.69532 14.0942 6.49658 12.3511 6.49658H12.2607C10.5176 6.49658 9.10156 7.69532 9.10156 9.43848V9.60206C9.10156 11.001 11.2085 11.001 11.2085 9.60206V9.58497C11.2085 9.021 11.6626 8.58643 12.2607 8.58643H12.3511C12.9492 8.58643 13.4033 9.02344 13.4033 9.58497V10.1831C13.4033 10.437 13.3301 10.6372 13.0762 10.874C12.0044 11.8897 11.189 12.3071 11.189 14.0503V14.7779C11.189 16.1768 13.2959 16.1768 13.2959 14.7779V14.0332ZM11.1914 17.8638V18.3008C11.1914 18.9356 11.7188 19.2627 12.2437 19.2627C12.771 19.2627 13.2959 18.9356 13.2959 18.3008V17.8638C13.2959 17.229 12.7686 16.9019 12.2437 16.9019C11.7188 16.9019 11.1914 17.229 11.1914 17.8638Z"/></svg>