<svg xmlns="http://www.w3.org/2000/svg" width="23" height="23" fill="none" viewBox="0 0 23 23"><path fill="#000" d="M16.9525 14.7712H13.6799C13.6799 15.9767 12.7055 16.9511 11.5 16.9511C10.2945 16.9511 9.32008 15.9767 9.32008 14.7712H6.0475C6.0475 14.7712 8.23172 13.5087 8.22747 11.5008C8.22532 9.17708 8.22747 9.31873 8.22747 9.31873C8.22747 9.31873 8.29667 6.00253 11.5 6.04835C14.9951 6.09412 14.7704 9.31873 14.7704 9.31873C14.7704 9.31873 14.7672 9.40715 14.7704 11.5008C14.7746 13.4731 16.9525 14.7712 16.9525 14.7712ZM22.406 4.95572V18.0437C22.406 20.4516 20.4508 22.4041 18.0429 22.4041H4.95701C2.54707 22.4041 0.593994 20.4516 0.593994 18.0437V4.95572C0.593994 2.54788 2.54707 0.595825 4.95701 0.595825H18.0429C20.4508 0.59585 22.406 2.54788 22.406 4.95572ZM20.2228 6.04835C20.2228 4.23953 18.7596 2.77582 16.9525 2.77582H6.0475C4.24032 2.77582 2.77711 4.23953 2.77711 6.04835V16.9511C2.77711 18.7604 4.24032 20.2242 6.0475 20.2242H16.9525C18.7596 20.2242 20.2228 18.7604 20.2228 16.9511V6.04835Z"/></svg>