<svg xmlns="http://www.w3.org/2000/svg" width="23" height="23" fill="none" viewBox="0 0 23 23"><path fill="#000" d="M18.0431 0.593384H4.95466C2.54639 0.593384 0.593994 2.54683 0.593994 4.95727V18.0458C0.593994 20.454 2.54637 22.4064 4.95466 22.4064H18.0432C20.4535 22.4064 22.406 20.454 22.406 18.0458V4.95727C22.4059 2.54683 20.4535 0.593384 18.0431 0.593384ZM20.2267 17.3172C20.2267 18.9224 18.9229 20.2261 17.3167 20.2261H5.68322C4.07483 20.2261 2.77429 18.9224 2.77429 17.3172V5.68368C2.77429 4.07852 4.07483 2.7748 5.68322 2.7748H17.3167C18.9229 2.7748 20.2267 4.07852 20.2267 5.68368V17.3172ZM15.2461 9.29665L16.897 7.64357L15.3568 6.10229L13.7038 7.75435C13.3586 7.55193 12.9869 7.39434 12.5917 7.29099V4.95512H10.4082V7.29099C10.0131 7.39434 9.64128 7.55193 9.29619 7.75435L7.64306 6.10229L6.10076 7.64357L7.75384 9.29665C7.54933 9.64176 7.39383 10.0135 7.2916 10.4086H4.95466V12.5922H7.2916C7.39383 12.9874 7.54933 13.3591 7.75384 13.7042L6.10076 15.3573L7.64306 16.9007L9.29619 15.2465C9.64128 15.4479 10.013 15.6065 10.4082 15.7099V18.0458H12.5917V15.7099C12.9869 15.6065 13.3586 15.4479 13.7038 15.2465L15.3568 16.9007L16.897 15.3573L15.2461 13.7042C15.4484 13.3591 15.6061 12.9874 15.7094 12.5922H18.0431V10.4086H15.7094C15.6061 10.0135 15.4484 9.64179 15.2461 9.29665ZM11.4989 13.6819C10.2963 13.6819 9.31855 12.7041 9.31855 11.4994C9.31855 10.2957 10.2964 9.31901 11.4989 9.31901C12.7046 9.31901 13.6824 10.2957 13.6824 11.4994C13.6824 12.7041 12.7046 13.6819 11.4989 13.6819Z"/></svg>