<svg xmlns="http://www.w3.org/2000/svg" width="25" height="25" fill="none" viewBox="0 0 25 25"><path fill="#000" d="M20.4 25H4.59999C3.38032 24.999 2.21089 24.514 1.34845 23.6516C0.486007 22.7891 0.00103442 21.6197 0 20.4L0 4.60001C0.00103442 3.38034 0.486007 2.21091 1.34845 1.34847C2.21089 0.486023 3.38032 0.00104942 4.59999 1.50049e-05H20.4C21.0045 -0.00153094 21.6033 0.116396 22.1621 0.34702C22.7209 0.577644 23.2287 0.916419 23.6561 1.34388C24.0836 1.77133 24.4223 2.27905 24.653 2.83784C24.8836 3.39664 25.0015 3.9955 25 4.60001V20.4C25.0015 21.0045 24.8836 21.6034 24.653 22.1622C24.4223 22.721 24.0836 23.2287 23.6561 23.6561C23.2287 24.0836 22.7209 24.4224 22.1621 24.653C21.6033 24.8836 21.0045 25.0016 20.4 25V25ZM4.59999 1.82501C3.075 1.82501 1.85 3.07501 1.85 4.60001V20.4C1.85 21.925 3.075 23.175 4.59999 23.175H20.4C21.925 23.175 23.175 21.925 23.175 20.4V4.60001C23.175 3.07501 21.925 1.82501 20.4 1.82501H4.59999ZM7.54999 20.3C6.87499 20.3 6.34999 19.775 6.34999 19.125V10.85C6.34999 10.175 6.87499 9.65001 7.54999 9.65001C8.22499 9.65001 8.72499 10.175 8.72499 10.85V19.125C8.72499 19.775 8.19999 20.3 7.54999 20.3V20.3ZM12.5 20.3C11.85 20.3 11.3 19.775 11.3 19.125V12.5C11.3 11.85 11.85 11.3 12.5 11.3C13.15 11.3 13.7 11.85 13.7 12.5V19.125C13.7 19.775 13.15 20.3 12.5 20.3V20.3ZM17.475 20.3C16.8 20.3 16.275 19.775 16.275 19.125V7.52501C16.275 6.87501 16.8 6.35001 17.475 6.35001C18.15 6.35001 18.65 6.87501 18.65 7.52501V19.125C18.65 19.775 18.125 20.3 17.475 20.3V20.3Z"/></svg>